<?xml version="1.0" standalone="no"?>
<!DOCTYPE svg PUBLIC "-//W3C//DTD SVG 20010904//EN"
 "http://www.w3.org/TR/2001/REC-SVG-20010904/DTD/svg10.dtd">
<svg version="1.0" xmlns="http://www.w3.org/2000/svg"
 width="284.000000pt" height="284.000000pt" viewBox="0 0 284.000000 284.000000"
 preserveAspectRatio="xMidYMid meet">
<metadata>
Created by potrace 1.14, written by Peter Selinger 2001-2017
</metadata>
<g transform="translate(0.000000,284.000000) scale(0.100000,-0.100000)"
fill="#000000" stroke="none">
<path d="M0 1420 l0 -1420 1420 0 1420 0 0 1420 0 1420 -1420 0 -1420 0 0
-1420z m1420 807 l0 -83 -85 -12 c-174 -23 -297 -83 -420 -207 -125 -126 -184
-247 -207 -421 -18 -144 17 -311 94 -442 42 -72 177 -207 250 -250 130 -77
307 -114 449 -94 171 25 292 85 414 207 112 112 181 238 200 368 l7 47 -109 0
-109 0 0 85 1 85 199 0 199 0 -6 -117 c-14 -297 -153 -546 -394 -706 -379
-252 -903 -168 -1182 190 -255 326 -254 770 2 1098 151 194 415 330 650 334
l47 1 0 -83z m128 -153 c42 -8 113 -33 157 -54 79 -38 174 -106 175 -125 0
-12 -101 -115 -113 -115 -5 0 -26 14 -47 30 -57 45 -157 88 -234 100 -317 50
-605 -237 -556 -554 49 -324 394 -512 688 -376 35 17 81 43 102 60 21 16 42
30 46 30 12 0 114 -103 114 -115 -1 -19 -95 -86 -175 -125 -156 -76 -325 -88
-490 -36 -114 36 -196 88 -281 180 -168 178 -224 419 -150 651 36 114 88 196
180 281 161 152 369 212 584 168z m19 -234 c194 -68 319 -280 285 -482 -7 -38
-24 -95 -39 -126 -34 -73 -131 -170 -203 -204 -63 -30 -178 -54 -192 -40 -5 5
-8 44 -6 88 l3 79 46 6 c128 19 220 128 220 264 0 136 -92 245 -220 264 l-46
6 -3 74 c-4 101 -2 105 56 96 26 -4 70 -15 99 -25z m-149 -410 c1 -118 -1
-217 -6 -222 -11 -11 -94 15 -131 41 -115 82 -112 272 6 354 38 27 95 48 118
43 6 -2 11 -84 13 -216z"/>
</g>
</svg>
