<svg width="48" height="48" viewBox="0 0 48 48" fill="none" xmlns="http://www.w3.org/2000/svg">
<g clip-path="url(#clip0)">
<path d="M0 34.7281C0 31.0358 0 27.4433 0 23.7509C0 17.0649 2.5 11.3767 7.3 6.6865C11 3.19378 15.5 0.99835 20.6 0.299805C30.4 -1.19708 40 3.59295 44.9 12.2749C47.2 16.4661 48.3 20.9568 48 25.647C47.5 32.1335 44.8 37.622 40 42.0129C36.5 45.1065 32.4 47.1023 27.8 47.8008C26.9 47.9006 25.9 48.1002 25 48.1002C16.9 48.1002 8.9 48.1002 0.8 48.1002C0.2 48.1002 0.1 47.9006 0.1 47.4017C0 43.1106 0 38.9193 0 34.7281ZM23.9 10.3788C23.1 10.3788 22.2 10.4786 21.3 10.6782C12.5 12.4744 7.8 22.0545 11.8 30.0379C12 30.437 12 30.7364 11.9 31.0358C11.2 33.2312 10.5 35.5264 9.9 37.7218C9.8 37.9214 9.7 38.121 9.8 38.3206C10 38.5202 10.2 38.3206 10.4 38.2208C12.8 37.622 15.2 37.0233 17.6 36.4245C18 36.3248 18.4 36.3247 18.9 36.5243C21.2 37.5223 23.7 37.8216 26.1 37.4225C33.5 36.3248 38.7 29.4391 37.6 21.9547C36.5 15.3684 30.8 10.3788 23.9 10.3788Z" fill="#DBE442"/>
</g>
<defs>
<clipPath id="clip0">
<rect width="48" height="48" fill="white"/>
</clipPath>
</defs>
</svg>
