<svg width="17" height="20" viewBox="0 0 17 20" fill="none" xmlns="http://www.w3.org/2000/svg">
<path d="M8.5 0C10.7543 0 12.9163 0.895533 14.5104 2.48959C16.1045 4.08365 17 6.24566 17 8.5C17 12.019 14.3178 15.7061 9.06667 19.6444C8.90319 19.7671 8.70435 19.8333 8.5 19.8333C8.29565 19.8333 8.09681 19.7671 7.93333 19.6444C2.68222 15.7061 0 12.019 0 8.5C0 6.24566 0.895533 4.08365 2.48959 2.48959C4.08365 0.895533 6.24566 0 8.5 0V0ZM8.5 5.66667C7.74855 5.66667 7.02788 5.96518 6.49653 6.49653C5.96518 7.02788 5.66667 7.74855 5.66667 8.5C5.66667 9.25145 5.96518 9.97212 6.49653 10.5035C7.02788 11.0348 7.74855 11.3333 8.5 11.3333C9.25145 11.3333 9.97212 11.0348 10.5035 10.5035C11.0348 9.97212 11.3333 9.25145 11.3333 8.5C11.3333 7.74855 11.0348 7.02788 10.5035 6.49653C9.97212 5.96518 9.25145 5.66667 8.5 5.66667Z" fill="white"/>
</svg>
