<svg width="45" height="48" viewBox="0 0 45 48" fill="none" xmlns="http://www.w3.org/2000/svg">
<g clip-path="url(#clip0)">
<path d="M44.7672 15.75C44.7672 5.32759 37.9397 2.27586 37.9397 2.27586C34.5 0.724138 28.6034 0.0517241 22.4741 0H22.319C16.1897 0.0517241 10.2672 0.724138 6.82758 2.30172C6.82758 2.30172 -1.96509e-06 5.35345 -1.96509e-06 15.7759C-1.96509e-06 18.1552 -0.0517261 21 0.0258601 24.0259C0.284481 34.2155 1.88793 44.25 11.3017 46.7328C15.6465 47.8707 19.3707 48.1293 22.3707 47.9483C27.8017 47.6379 30.8793 46.0086 30.8793 46.0086L30.6983 42.0517C30.6983 42.0517 26.819 43.2672 22.4483 43.1379C18.1293 42.9828 13.5517 42.6724 12.8534 37.3448C12.8017 36.8793 12.75 36.3879 12.75 35.8448C12.75 35.8448 16.9914 36.8793 22.3965 37.1379C25.681 37.2931 28.7845 36.9569 31.9138 36.569C37.9397 35.8448 43.1638 32.1465 43.8103 28.7586C44.8707 23.431 44.7672 15.75 44.7672 15.75ZM36.7241 29.1724H31.7328V16.9397C31.7328 14.3534 30.6465 13.0603 28.4741 13.0603C26.069 13.0603 24.8793 14.6121 24.8793 17.6897V24.3879H19.9138V17.6638C19.9138 14.5862 18.6983 13.0345 16.319 13.0345C14.1465 13.0345 13.0603 14.3534 13.0603 16.9138V29.1465H8.0431V16.5776C8.0431 13.9914 8.68965 11.9483 10.0086 10.4483C11.3793 8.92241 13.1379 8.14655 15.3621 8.14655C17.9224 8.14655 19.8621 9.12931 21.1293 11.0948L22.3707 13.1897L23.6121 11.0948C24.8793 9.12931 26.819 8.14655 29.3793 8.14655C31.5776 8.14655 33.3621 8.92241 34.7328 10.4483C36.0517 11.9741 36.6983 14.0172 36.6983 16.5776V29.1724H36.7241Z" fill="#DBE442"/>
</g>
<defs>
<clipPath id="clip0">
<rect width="44.7672" height="48" fill="white"/>
</clipPath>
</defs>
</svg>
