<svg width="48" height="48" viewBox="0 0 48 48" fill="none" xmlns="http://www.w3.org/2000/svg">
<path d="M1.26667 1.06667H4.53333V0H0V48H4.53333V46.9333H1.26667V1.06667Z" fill="#DBE442"/>
<path d="M36.8667 15.6664C36.2667 15.1331 35.5333 14.7331 34.6667 14.4664C33.8 14.1997 32.8667 14.0664 31.8667 14.0664C30.5333 14.0664 29.4 14.3997 28.4 15.0664C27.4 15.7331 26.6667 16.4664 26.0667 17.2664C25.5333 16.0664 24.8 15.2664 23.8 14.7997C22.8 14.3331 21.6667 14.0664 20.4667 14.0664C19.2 14.0664 18.0667 14.3331 17.1333 14.8664C16.1333 15.4664 15.2667 16.1997 14.6 17.1997H14.5333V14.6664H9.53333V33.8664H14.8V22.7331C14.8 21.7997 14.9333 20.9997 15.2 20.4664C15.4667 19.8664 15.8 19.4664 16.2 19.1331C16.5333 18.8664 16.9333 18.5997 17.4 18.5331C17.7333 18.4664 18.0667 18.3997 18.4 18.3331C19.2667 18.3331 19.8667 18.4664 20.3333 18.7331C20.7333 18.9997 21.0667 19.3997 21.2667 19.8664C21.4667 20.3331 21.5333 20.8664 21.6 21.3997C21.6 21.9331 21.6667 22.5331 21.6667 23.0664V33.8664H26.9333V23.1331C26.9333 22.5331 27 21.9331 27.0667 21.3997C27.1333 20.8664 27.3333 20.3331 27.6 19.8664C27.8667 19.3997 28.2 19.0664 28.6667 18.7331C29.1333 18.4664 29.7333 18.3331 30.4667 18.3331C31.2 18.3331 31.8 18.4664 32.2 18.7331C32.6 18.9331 32.9333 19.3331 33.2 19.7331C33.4667 20.1997 33.6 20.7331 33.6 21.1997C33.6667 21.7997 33.6667 22.3997 33.6667 22.9997V33.8664H38.9333V20.9997C38.9333 19.7331 38.7333 18.6664 38.4 17.7997C38 16.9331 37.4667 16.2664 36.8667 15.6664Z" fill="#DBE442"/>
<path d="M43.4667 0V1.06667H46.7333V46.9333H43.4667V48H48V0H43.4667Z" fill="#DBE442"/>
</svg>
