<svg width="48" height="39" viewBox="0 0 48 39" fill="none" xmlns="http://www.w3.org/2000/svg">
<path d="M46.6667 0.710706C44.8 1.8656 42.6667 2.66515 40.4444 3.10934C38.6667 1.1549 36.0889 0 33.2444 0C27.8222 0 23.3778 4.44191 23.3778 9.86105C23.3778 10.6606 23.4667 11.3713 23.6444 12.082C15.4667 11.6378 8.17778 7.72893 3.37778 1.77677C2.48889 3.19818 2.04444 4.8861 2.04444 6.75171C2.04444 10.1276 3.82222 13.1481 6.4 14.9248C4.8 14.836 3.28889 14.3918 1.95556 13.6811V13.7699C1.95556 18.5672 5.33333 22.4761 9.86667 23.4533C9.06667 23.7198 8.17778 23.8087 7.28889 23.8087C6.66667 23.8087 6.04444 23.7198 5.42222 23.631C6.66667 27.5399 10.3111 30.3827 14.5778 30.4715C11.2 33.1367 6.93333 34.6469 2.31111 34.6469C1.51111 34.6469 0.711111 34.5581 0 34.4692C4.35556 37.2232 9.51111 38.9112 15.1111 38.9112C33.2444 38.9112 43.1111 23.8975 43.1111 10.9271C43.1111 10.4829 43.1111 10.0387 43.1111 9.68337C45.0667 8.26196 46.6667 6.57403 48 4.61959C46.2222 5.41913 44.3556 5.95216 42.3111 6.12984C44.3556 4.97494 45.9556 3.0205 46.6667 0.710706Z" fill="#DBE442"/>
</svg>
